<?xml version="1.0" encoding="utf-8"?>
<!-- Generator: Adobe Illustrator 27.7.0, SVG Export Plug-In . SVG Version: 6.00 Build 0)  -->
<svg version="1.1" id="Layer_1" xmlns="http://www.w3.org/2000/svg" xmlns:xlink="http://www.w3.org/1999/xlink" x="0px" y="0px"
	 viewBox="0 0 448 512" style="enable-background:new 0 0 448 512;" xml:space="preserve">
<style type="text/css">
	.st0{fill:#FFFFFF;}
</style>
<path class="st0" d="M342.6,86.6c12.5-12.5,12.5-32.8,0-45.3s-32.8-12.5-45.3,0L160,178.7l-57.4-57.4c-12.5-12.5-32.8-12.5-45.3,0
	s-12.5,32.8,0,45.3l80,80c12.5,12.5,32.8,12.5,45.3,0C182.6,246.6,342.6,86.6,342.6,86.6z M438.6,214.6c12.5-12.5,12.5-32.8,0-45.3
	s-32.8-12.5-45.3,0L160,402.7L54.6,297.4c-12.5-12.5-32.8-12.5-45.3,0s-12.5,32.8,0,45.3l128,128c12.5,12.5,32.8,12.5,45.3,0
	L438.6,214.6L438.6,214.6z"/>
</svg>
